# xmcd CD database file
#
# Track frame offsets:
#	150
#	26509
#	46673
#	70579
#	89430
#	105357
#	129428
#	148914
#	176413
#	202916
#	226268
#	242798
#	265305
#	286158
#
# Disc length: 4161 seconds
#
# Revision: 0
# Processed by: cddbd v1.5.2PL0 Copyright (c) Steve Scherf et al.
# Submitted via: CDex 1.70beta2
#
DISCID=b7103f0e
DTITLE=Various Artist - JAZZ AND BEYOND
DYEAR=2008
DGENRE=Jazz
TTITLE0=Corpo Suado (Phil Martin remix) (Praful)
TTITLE1=Revelations (The Jazzinvaders remix) (Diesler feat. Laura Vane)
TTITLE2=My Lost Hands Crumbles (Eddie Roberts remix) (The Houdini's)
TTITLE3=Illusions (Frank Montis)
TTITLE4=Reunion Blues (Phil Martin remix) (The Beets Brothers)
TTITLE5=Spy's Methaphor (Phil Martin remix) (Monsieur Dubois)
TTITLE6=Damn That Beat (Phil Martin remix) (DJ Maestro and Sven Vigee)
TTITLE7=No More Yesterdays (Gianni de Luca remix) (The Houdini's)
TTITLE8=An Echo Remains (Jaffa)
TTITLE9=Bop the Ragtop (Solo Moderna)
TTITLE10=Day by Day (The Jazzinvaders)
TTITLE11=New Born (The Jazzinvaders remix) (Idea6)
TTITLE12=Catch 22 Hot (The Jazzinvaders remix) (The Houdini's)
TTITLE13=Perugia (Diesler remix) (The Jazzinvaders)
EXTD=YEAR: 2008
EXTT0=
EXTT1=
EXTT2=
EXTT3=
EXTT4=
EXTT5=
EXTT6=
EXTT7=
EXTT8=
EXTT9=
EXTT10=
EXTT11=
EXTT12=
EXTT13=
PLAYORDER=
